# xmcd CD database file
#
# Track frame offsets:
#	150
#	19817
#	37975
#	56275
#
# Disc length: 1004 seconds
#
# Revision: 2
# Processed by: cddbd v1.5.2PL0 Copyright (c) Steve Scherf et al.
# Submitted via: CDex 1.70beta2
#
DISCID=2503ea04
DTITLE=水樹奈々 - 夢幻
DYEAR=2009
DGENRE=Anime
TTITLE0=夢幻
TTITLE1=天空のカナリア
TTITLE2=Dear Dream
TTITLE3=STORIES
EXTD=Cashflow420.com YEAR: 2009
EXTT0=
EXTT1=
EXTT2=
EXTT3=
PLAYORDER=
